<?xml version="1.0" encoding="UTF-8" standalone="no"?>
<!DOCTYPE svg PUBLIC "-//W3C//DTD SVG 1.1//EN" "http://www.w3.org/Graphics/SVG/1.1/DTD/svg11.dtd">
<svg width="100%" height="100%" viewBox="0 0 901 463" version="1.1" xmlns="http://www.w3.org/2000/svg" xmlns:xlink="http://www.w3.org/1999/xlink" xml:space="preserve" xmlns:serif="http://www.serif.com/" style="fill-rule:evenodd;clip-rule:evenodd;stroke-linejoin:round;stroke-miterlimit:2;">
    <g transform="matrix(1,0,0,1,-1600,-169.893)">
        <g transform="matrix(0.372204,-0.000505812,0.000510492,0.375647,1665.82,3.50272)">
            <text x="401.952px" y="1508.88px" style="font-family:'RelicaRounded-Regular', 'Relica Rounded';font-size:541.997px;">Mata</text>
        </g>
        <g transform="matrix(0.244743,0,0,0.244743,1480.38,149.384)">
            <text x="749.282px" y="1024px" style="font-family:'RelicaRounded-Regular', 'Relica Rounded';font-size:832.262px;">Rolando</text>
        </g>
        <g transform="matrix(1.06843,0,0,1.01406,670.465,-383.623)">
            <g transform="matrix(1,0,0,1,55,-60.0974)">
                <rect x="816" y="606.195" width="144" height="29.805" style="fill:rgb(238,201,15);"/>
            </g>
            <g transform="matrix(-0.00546268,0.999985,-0.999985,-0.00546268,1511.23,-266.674)">
                <rect x="816" y="606.195" width="144" height="29.805" style="fill:rgb(238,201,15);"/>
            </g>
        </g>
        <g transform="matrix(-0.00222648,-1.02703,1.02597,-0.00217284,1041.98,1527.17)">
            <g transform="matrix(1,0,0,1,55,-60.0974)">
                <rect x="816" y="606.195" width="144" height="29.805" style="fill:rgb(28,65,235);"/>
            </g>
            <g transform="matrix(-0.00546268,0.999985,-0.999985,-0.00546268,1511.23,-266.674)">
                <rect x="816" y="606.195" width="144" height="29.805" style="fill:rgb(28,65,235);"/>
            </g>
        </g>
        <g transform="matrix(-1.06106,0.00194099,-0.00189139,-1.01008,3424.69,1181.53)">
            <g transform="matrix(1,0,0,1,55,-60.0974)">
                <rect x="816" y="606.195" width="144" height="29.805" style="fill:rgb(235,87,40);"/>
            </g>
            <g transform="matrix(-0.00546268,0.999985,-0.999985,-0.00546268,1511.23,-266.674)">
                <rect x="816" y="606.195" width="144" height="29.805" style="fill:rgb(235,87,40);"/>
            </g>
        </g>
        <g transform="matrix(0.00535786,1.01245,-1.04699,0.00541273,3066.58,-714.675)">
            <g transform="matrix(1,0,0,1,55,-60.0974)">
                <rect x="816" y="606.195" width="144" height="29.805" style="fill:rgb(121,235,75);"/>
            </g>
            <g transform="matrix(-0.00546268,0.999985,-0.999985,-0.00546268,1511.23,-266.674)">
                <rect x="816" y="606.195" width="144" height="29.805" style="fill:rgb(121,235,75);"/>
            </g>
        </g>
    </g>
</svg>
