<?xml version="1.0" encoding="utf-8"?>
<!-- Generator: Adobe Illustrator 19.0.0, SVG Export Plug-In . SVG Version: 6.00 Build 0)  -->
<svg version="1.1" id="Layer_1" xmlns="http://www.w3.org/2000/svg" xmlns:xlink="http://www.w3.org/1999/xlink" x="0px" y="0px"
	 viewBox="-290.4 258.6 198.1 193.4" style="enable-background:new -290.4 258.6 198.1 193.4;" xml:space="preserve">
<style type="text/css">
	.st0{fill:#FFFFFF;}
</style>
<g>
	<path class="st0" d="M-147.5,452h-87.7c-30.5,0-55.2-24.8-55.2-55.2v-82.9c0-30.5,24.8-55.2,55.2-55.2h87.7
		c30.5,0,55.2,24.8,55.2,55.2v82.9C-92.3,427.2-117.1,452-147.5,452z M-235.2,275c-22.6,0-38.9,16.2-38.9,38.9v80.7
		c0,22.6,16.2,41.1,38.9,41.1h87.7c22.6,0,38.9-18.4,38.9-41.1v-80.7c0-22.6-16.2-38.9-38.9-38.9H-235.2z"/>
	<path class="st0" d="M-191.4,406.4c-28.3,0-51.4-23-51.4-51.4c0-14,5.7-27.6,15.8-37.3c9.8-9.5,22.5-14.5,35.9-14.1
		c16,0.5,29.3,5.9,38.4,15.6c8.6,9.2,13,21.7,12.7,36l0,0c-0.3,13.7-5.7,26.5-15.2,36.1C-164.8,401.1-177.7,406.4-191.4,406.4z
		 M-192.5,321c-8.3,0-16.2,3.3-22.4,9.2c-6.7,6.5-10.5,15.5-10.5,24.9c0,18.8,15.3,34.1,34.1,34.1c18.7,0,33.6-15,34.1-34.3
		c0.2-9.7-2.6-17.9-8.1-23.8c-5.9-6.3-15-9.8-26.3-10.1C-191.9,321-192.2,321-192.5,321z"/>
	<circle class="st0" cx="-140" cy="302.2" r="12"/>
</g>
</svg>
