<?xml version="1.0" encoding="utf-8"?>
<!-- Generator: Adobe Illustrator 19.0.0, SVG Export Plug-In . SVG Version: 6.00 Build 0)  -->
<svg version="1.1" id="Layer_1" xmlns="http://www.w3.org/2000/svg" xmlns:xlink="http://www.w3.org/1999/xlink" x="0px" y="0px"
	 viewBox="-42 -8 104.6 104.3" style="enable-background:new -42 -8 104.6 104.3;" xml:space="preserve">
<style type="text/css">
	.st0{fill:#FFFFFF;}
</style>
<path class="st0" d="M-40.3,26.6h21.7v69.7h-21.7V26.6z M-29.4-8c6.9,0,12.6,5.6,12.6,12.6c0,6.9-5.6,12.6-12.6,12.6
	c-7,0-12.6-5.6-12.6-12.6C-42-2.4-36.4-8-29.4-8"/>
<path class="st0" d="M-5,26.6h20.8v9.5h0.3c2.9-5.5,10-11.3,20.5-11.3c21.9,0,26,14.4,26,33.2v38.2H40.9V62.4
	c0-8.1-0.2-18.5-11.3-18.5c-11.3,0-13,8.8-13,17.9v34.5H-5V26.6z"/>
</svg>
