<?xml version="1.0" encoding="UTF-8" standalone="no"?>
<!DOCTYPE svg PUBLIC "-//W3C//DTD SVG 1.1//EN" "http://www.w3.org/Graphics/SVG/1.1/DTD/svg11.dtd">
<svg width="100%" height="100%" viewBox="0 0 1192 386" version="1.1" xmlns="http://www.w3.org/2000/svg" xmlns:xlink="http://www.w3.org/1999/xlink" xml:space="preserve" xmlns:serif="http://www.serif.com/" style="fill-rule:evenodd;clip-rule:evenodd;stroke-linejoin:round;stroke-miterlimit:2;">
    <g transform="matrix(1,0,0,1,-242.246,-802.99)">
        <g>
            <g>
                <g transform="matrix(0.372204,-0.000505812,0.000510492,0.375647,470.649,596.468)">
                    <text x="401.952px" y="1508.88px" style="font-family:'DINAlternate-Bold', 'DIN Alternate', sans-serif;font-weight:700;font-size:541.997px;fill:rgb(241,241,241);">Mata</text>
                </g>
                <g transform="matrix(0.244743,0,0,0.244743,315.574,697.384)">
                    <text x="749.282px" y="1024px" style="font-family:'DINAlternate-Bold', 'DIN Alternate', sans-serif;font-weight:700;font-size:832.262px;fill:white;">Rolando</text>
                </g>
            </g>
            <g transform="matrix(-1.44343,1.19202,-1.17624,-1.42431,3332.96,749.909)">
                <g transform="matrix(1,0,0,1,55,-60.0974)">
                    <rect x="816" y="606.195" width="144" height="29.805" style="fill:rgb(121,235,75);"/>
                </g>
                <g transform="matrix(-0.00546268,0.999985,-0.999985,-0.00546268,1511.23,-266.674)">
                    <rect x="816" y="606.195" width="144" height="29.805" style="fill:rgb(121,235,75);"/>
                </g>
            </g>
            <g transform="matrix(1.27056,-1.37481,1.3566,1.25373,-1604.62,1519.22)">
                <g transform="matrix(1,0,0,1,55,-60.0974)">
                    <rect x="816" y="606.195" width="144" height="29.805" style="fill:rgb(121,235,75);"/>
                </g>
                <g transform="matrix(-0.00546268,0.999985,-0.999985,-0.00546268,1511.23,-266.674)">
                    <rect x="816" y="606.195" width="144" height="29.805" style="fill:rgb(121,235,75);"/>
                </g>
            </g>
        </g>
    </g>
</svg>
